# xmcd
#
# Track frame offsets:
#	150
#	13580
#	29388
#	44367
#	58641
#	72829
#	83173
#	104031
#	118901
#	133989
#	149265
#	162274
#	174128
#	188505
#	199178
#	211855
#	223842
#	237200
#	248788
#
# Disc length: 3495 seconds
#
# Revision: 0
# Processed by: cddbd v1.4PL0 Copyright (c) Steve Scherf et al.
# Submitted via: dBpowerAMP V4.0
#
DISCID=150da513
DTITLE=Pete Leary - A Sensitive New Age Cowboy
DYEAR=1900
DGENRE=Country
TTITLE0=A Sensitive New Age Cowboy
TTITLE1=Talk some Elvis To Me Baby
TTITLE2=Somebody Special
TTITLE3=If You Say Stop (This Man Will)
TTITLE4=I Ain't Gonna Let Ya Go Hungry
TTITLE5=Never Less Than Friends
TTITLE6=Better Late Than Never
TTITLE7=Over And Over
TTITLE8=At Least I've Started
TTITLE9=Roots and Wings
TTITLE10=Parting
TTITLE11=Every Other Christmas
TTITLE12=Mama I Hardly Ever Knew You
TTITLE13=Imagine What Would You Do?
TTITLE14=Hey! Can't We Get Along?
TTITLE15=Who'll Feed The Children?
TTITLE16=The Hardware Store
TTITLE17=It's Hard to Be Sad When You're Singing
TTITLE18=A Sensitive New Age Cowboy (Alt)
EXTD="A Sensitive New Age Cowboy" by Pete Leary, Raleigh NC
EXTT0=
EXTT1=
EXTT2=
EXTT3=
EXTT4=
EXTT5=
EXTT6=
EXTT7=
EXTT8=
EXTT9=
EXTT10=
EXTT11=
EXTT12=
EXTT13=
EXTT14=
EXTT15=
EXTT16=
EXTT17=
EXTT18=
PLAYORDER=
